<mxfile host="65bd71144e">
    <diagram id="-yKd4-HMBDkQZtuK9eO9" name="Page-1">
        <mxGraphModel dx="1156" dy="533" grid="1" gridSize="10" guides="1" tooltips="1" connect="1" arrows="1" fold="1" page="1" pageScale="1" pageWidth="850" pageHeight="1100" math="0" shadow="0">
            <root>
                <mxCell id="0"/>
                <mxCell id="1" parent="0"/>
                <mxCell id="2" value="" style="rounded=0;whiteSpace=wrap;html=1;fillColor=#f5f5f5;strokeColor=#666666;fontColor=#333333;" parent="1" vertex="1">
                    <mxGeometry x="10" y="181.25" width="833" height="128.75" as="geometry"/>
                </mxCell>
                <mxCell id="6" value="&lt;font style=&quot;font-size: 18px;&quot;&gt;DECSAI&lt;/font&gt;" style="whiteSpace=wrap;html=1;aspect=fixed;fillColor=#f5f5f5;fontColor=#333333;strokeColor=#666666;fontSize=18;" parent="1" vertex="1">
                    <mxGeometry x="40" y="208.44" width="74.37" height="74.37" as="geometry"/>
                </mxCell>
                <mxCell id="7" value="&lt;font style=&quot;font-size: 18px;&quot;&gt;UGR&lt;/font&gt;" style="whiteSpace=wrap;html=1;aspect=fixed;fillColor=#f5f5f5;fontColor=#333333;strokeColor=#666666;fontSize=18;" parent="1" vertex="1">
                    <mxGeometry x="386.5" y="205.63" width="80" height="80" as="geometry"/>
                </mxCell>
                <mxCell id="8" value="&lt;font style=&quot;font-size: 18px;&quot;&gt;Facultad de Ciencias&lt;/font&gt;" style="whiteSpace=wrap;html=1;aspect=fixed;fillColor=#f5f5f5;fontColor=#333333;strokeColor=#666666;" parent="1" vertex="1">
                    <mxGeometry x="730" y="203.44" width="84.37" height="84.37" as="geometry"/>
                </mxCell>
                <mxCell id="9" value="" style="rounded=0;whiteSpace=wrap;html=1;fillColor=#f5f5f5;fontColor=#333333;strokeColor=#666666;movable=1;resizable=1;rotatable=1;deletable=1;editable=1;connectable=1;" parent="1" vertex="1">
                    <mxGeometry x="10.01" y="310" width="833" height="370" as="geometry"/>
                </mxCell>
                <mxCell id="56" value="Go Back" style="rounded=1;whiteSpace=wrap;html=1;fillColor=#f5f5f5;fontColor=#999999;strokeColor=#999999;" parent="1" vertex="1">
                    <mxGeometry x="40" y="327.5" width="70" height="35" as="geometry"/>
                </mxCell>
                <mxCell id="65" value="&lt;div style=&quot;&quot;&gt;&lt;span style=&quot;color: rgb(0, 0, 0); background-color: initial;&quot;&gt;User Progress&lt;/span&gt;&lt;/div&gt;" style="text;html=1;strokeColor=none;fillColor=none;align=left;verticalAlign=middle;whiteSpace=wrap;rounded=0;fontSize=20;fontStyle=1" parent="1" vertex="1">
                    <mxGeometry x="114.37" y="362.5" width="267.19" height="40" as="geometry"/>
                </mxCell>
                <mxCell id="66" value="User 1" style="text;html=1;strokeColor=none;fillColor=none;align=left;verticalAlign=middle;whiteSpace=wrap;rounded=0;fontStyle=1;fontColor=#000000;" parent="1" vertex="1">
                    <mxGeometry x="114.74000000000001" y="440" width="60" height="30" as="geometry"/>
                </mxCell>
                <mxCell id="67" value="60%" style="rounded=0;whiteSpace=wrap;html=1;fontColor=#FFFFFF;fillColor=#006600;strokeColor=none;" parent="1" vertex="1">
                    <mxGeometry x="114.37" y="470.5" width="366" height="17" as="geometry"/>
                </mxCell>
                <mxCell id="68" value="20%" style="rounded=0;whiteSpace=wrap;html=1;fontColor=#FFFFFF;fillColor=#CC0000;strokeColor=none;" parent="1" vertex="1">
                    <mxGeometry x="470.37" y="470.5" width="140" height="17" as="geometry"/>
                </mxCell>
                <mxCell id="69" value="" style="rounded=0;whiteSpace=wrap;html=1;fontColor=#000000;fillColor=#CCCCCC;strokeColor=none;" parent="1" vertex="1">
                    <mxGeometry x="610.37" y="470.5" width="110" height="17" as="geometry"/>
                </mxCell>
                <mxCell id="70" value="User 2" style="text;html=1;strokeColor=none;fillColor=none;align=left;verticalAlign=middle;whiteSpace=wrap;rounded=0;fontStyle=1;fontColor=#000000;" parent="1" vertex="1">
                    <mxGeometry x="115.11000000000001" y="508.75" width="60" height="30" as="geometry"/>
                </mxCell>
                <mxCell id="71" value="50%" style="rounded=0;whiteSpace=wrap;html=1;fontColor=#FFFFFF;fillColor=#006600;strokeColor=none;" parent="1" vertex="1">
                    <mxGeometry x="114.74000000000001" y="539.25" width="315.63" height="17" as="geometry"/>
                </mxCell>
                <mxCell id="72" value="30%" style="rounded=0;whiteSpace=wrap;html=1;fontColor=#FFFFFF;fillColor=#CC0000;strokeColor=none;" parent="1" vertex="1">
                    <mxGeometry x="430.37" y="539.25" width="180.37" height="17" as="geometry"/>
                </mxCell>
                <mxCell id="73" value="" style="rounded=0;whiteSpace=wrap;html=1;fontColor=#000000;fillColor=#CCCCCC;strokeColor=none;" parent="1" vertex="1">
                    <mxGeometry x="610.74" y="539.25" width="110" height="17" as="geometry"/>
                </mxCell>
                <mxCell id="75" value="Validated" style="rounded=0;whiteSpace=wrap;html=1;fontColor=#FFFFFF;fillColor=#006600;strokeColor=none;" parent="1" vertex="1">
                    <mxGeometry x="115.11" y="402.5" width="64.89" height="17" as="geometry"/>
                </mxCell>
                <mxCell id="76" value="Ignored" style="rounded=0;whiteSpace=wrap;html=1;fontColor=#FFFFFF;fillColor=#CC0000;strokeColor=none;" parent="1" vertex="1">
                    <mxGeometry x="190" y="402.5" width="60" height="17" as="geometry"/>
                </mxCell>
            </root>
        </mxGraphModel>
    </diagram>
</mxfile>